<svg width="46" height="40" viewBox="0 0 46 40" fill="none" xmlns="http://www.w3.org/2000/svg">
<path d="M36.211 19.0373C41.6173 19.0373 46 14.7757 46 9.51867C46 4.26165 41.6173 0 36.211 0C30.8047 0 26.4221 4.26165 26.4221 9.51867C26.4221 14.7757 30.8047 19.0373 36.211 19.0373Z" fill="url(#paint0_linear_406_603)"/>
<path d="M9.78895 19.0373C15.1952 19.0373 19.5779 14.7757 19.5779 9.51867C19.5779 4.26165 15.1952 0 9.78895 0C4.38266 0 0 4.26165 0 9.51867C0 14.7757 4.38266 19.0373 9.78895 19.0373Z" fill="url(#paint1_linear_406_603)"/>
<foreignObject x="-12.6571" y="-14.8779" width="71.3064" height="72.8779"><div xmlns="http://www.w3.org/1999/xhtml" style="backdrop-filter:blur(9px);clip-path:url(#bgblur_0_406_603_clip_path);height:100%;width:100%"></div></foreignObject><path data-figma-bg-blur-radius="18" d="M22.9962 4.12207C32.2209 4.12213 39.6495 11.3854 39.6495 20.2881C39.6495 24.6639 37.8566 28.6357 34.9386 31.5508L34.4318 32.0566L34.7472 32.6992L36.5255 36.3174V36.3184C36.9762 37.2385 36.5887 38.355 35.6095 38.8105C34.6082 39.2746 33.4346 38.8519 32.9777 37.9219L31.6691 35.2607L31.2325 34.373L30.34 34.7998C28.1237 35.8596 25.6342 36.457 22.9962 36.457C20.358 36.457 17.8679 35.8597 15.6515 34.7998L14.7599 34.373L14.3234 35.2607L13.0148 37.9199C12.5824 38.7951 11.5233 39.219 10.5724 38.8877L10.3839 38.8115C9.40145 38.3516 9.0167 37.2326 9.46594 36.3184L11.2443 32.6992L11.5607 32.0566L11.0538 31.5508C8.13581 28.6357 6.34295 24.6639 6.3429 20.2881C6.3429 11.3853 13.7715 4.12207 22.9962 4.12207Z" fill="url(#paint2_linear_406_603)" stroke="url(#paint3_linear_406_603)" stroke-width="2"/>
<path d="M24.4396 9.87452C24.4396 9.08897 23.7847 8.45215 22.9769 8.45215C22.169 8.45215 21.5141 9.08897 21.5141 9.87452V20.5685C21.5141 21.3541 22.169 21.9909 22.9769 21.9909C23.7847 21.9909 24.4396 21.3541 24.4396 20.5685V9.87452Z" fill="white"/>
<path d="M29.7749 21.9942C30.5827 21.9942 31.2376 21.3573 31.2376 20.5718C31.2376 19.7862 30.5827 19.1494 29.7749 19.1494H22.9807C22.1729 19.1494 21.518 19.7862 21.518 20.5718C21.518 21.3573 22.1729 21.9942 22.9807 21.9942H29.7749Z" fill="white"/>
<defs>
<clipPath id="bgblur_0_406_603_clip_path" transform="translate(12.6571 14.8779)"><path d="M22.9962 4.12207C32.2209 4.12213 39.6495 11.3854 39.6495 20.2881C39.6495 24.6639 37.8566 28.6357 34.9386 31.5508L34.4318 32.0566L34.7472 32.6992L36.5255 36.3174V36.3184C36.9762 37.2385 36.5887 38.355 35.6095 38.8105C34.6082 39.2746 33.4346 38.8519 32.9777 37.9219L31.6691 35.2607L31.2325 34.373L30.34 34.7998C28.1237 35.8596 25.6342 36.457 22.9962 36.457C20.358 36.457 17.8679 35.8597 15.6515 34.7998L14.7599 34.373L14.3234 35.2607L13.0148 37.9199C12.5824 38.7951 11.5233 39.219 10.5724 38.8877L10.3839 38.8115C9.40145 38.3516 9.0167 37.2326 9.46594 36.3184L11.2443 32.6992L11.5607 32.0566L11.0538 31.5508C8.13581 28.6357 6.34295 24.6639 6.3429 20.2881C6.3429 11.3853 13.7715 4.12207 22.9962 4.12207Z"/>
</clipPath><linearGradient id="paint0_linear_406_603" x1="1.77841" y1="16.3273" x2="48.0498" y2="6.65073" gradientUnits="userSpaceOnUse">
<stop stop-color="#3B3BF9"/>
<stop offset="0.51" stop-color="#10E0F9"/>
<stop offset="1" stop-color="#92FFFF"/>
</linearGradient>
<linearGradient id="paint1_linear_406_603" x1="0.731381" y1="11.3116" x2="47.0028" y2="1.63499" gradientUnits="userSpaceOnUse">
<stop stop-color="#3B3BF9"/>
<stop offset="0.51" stop-color="#10E0F9"/>
<stop offset="1" stop-color="#92FFFF"/>
</linearGradient>
<linearGradient id="paint2_linear_406_603" x1="7.33615" y1="37.9181" x2="40.0192" y2="6.62787" gradientUnits="userSpaceOnUse">
<stop stop-color="white" stop-opacity="0.2"/>
<stop offset="1" stop-color="white" stop-opacity="0.49"/>
</linearGradient>
<linearGradient id="paint3_linear_406_603" x1="7.83513" y1="6.02246" x2="38.7223" y2="37.6406" gradientUnits="userSpaceOnUse">
<stop stop-color="white"/>
<stop offset="1" stop-color="white" stop-opacity="0"/>
</linearGradient>
</defs>
</svg>
