<svg width="36" height="43" viewBox="0 0 36 43" fill="none" xmlns="http://www.w3.org/2000/svg">
<path d="M6 24V13.6586C6 8.3251 11.1497 4 17.5 4C23.8503 4 29 8.3251 29 13.6586V23.9971" stroke="url(#paint0_linear_406_631)" stroke-width="8" stroke-miterlimit="10"/>
<foreignObject x="-18" y="2" width="71.15" height="58.7998"><div xmlns="http://www.w3.org/1999/xhtml" style="backdrop-filter:blur(9px);clip-path:url(#bgblur_0_406_631_clip_path);height:100%;width:100%"></div></foreignObject><path data-figma-bg-blur-radius="18" d="M3.7666 21H31.3828C32.92 21 34.1504 22.232 34.1504 23.7314V39.0684C34.1504 40.5678 32.92 41.7998 31.3828 41.7998H3.7666C2.2296 41.7996 1 40.5677 1 39.0684V23.7314C1 22.2321 2.2296 21.0002 3.7666 21Z" fill="url(#paint1_linear_406_631)" stroke="url(#paint2_linear_406_631)" stroke-width="2"/>
<defs>
<clipPath id="bgblur_0_406_631_clip_path" transform="translate(18 -2)"><path d="M3.7666 21H31.3828C32.92 21 34.1504 22.232 34.1504 23.7314V39.0684C34.1504 40.5678 32.92 41.7998 31.3828 41.7998H3.7666C2.2296 41.7996 1 40.5677 1 39.0684V23.7314C1 22.2321 2.2296 21.0002 3.7666 21Z"/>
</clipPath><linearGradient id="paint0_linear_406_631" x1="2.89116" y1="12.693" x2="32.1088" y2="12.693" gradientUnits="userSpaceOnUse">
<stop stop-color="#91F4FF"/>
<stop offset="0.5" stop-color="#D67EE2"/>
<stop offset="0.99" stop-color="#9820FF"/>
</linearGradient>
<linearGradient id="paint1_linear_406_631" x1="1.98442" y1="41.5128" x2="20.4526" y2="13.041" gradientUnits="userSpaceOnUse">
<stop stop-color="white" stop-opacity="0.2"/>
<stop offset="1" stop-color="white" stop-opacity="0.49"/>
</linearGradient>
<linearGradient id="paint2_linear_406_631" x1="2.48119" y1="21.7932" x2="19.4222" y2="49.7187" gradientUnits="userSpaceOnUse">
<stop stop-color="white"/>
<stop offset="1" stop-color="white" stop-opacity="0"/>
</linearGradient>
</defs>
</svg>
