<svg width="151" height="38" viewBox="0 0 151 38" fill="none" xmlns="http://www.w3.org/2000/svg">
<path fill-rule="evenodd" clip-rule="evenodd" d="M11.9881 18.5581C11.4226 18.7791 11.3095 19.7733 11.6488 20.7674C12.1012 21.7616 12.8929 22.3139 13.4583 22.093C14.0238 21.8721 14.1369 20.8779 13.7976 19.8837C13.3452 18.8895 12.5536 18.3372 11.9881 18.5581ZM17.0774 17.0116C16.3988 17.2326 16.2857 18.3372 16.7381 19.4419C17.1905 20.5465 18.0952 21.2093 18.6607 20.9884C19.3393 20.7674 19.4524 19.6628 19 18.5581C18.5476 17.4535 17.6429 16.7907 17.0774 17.0116ZM38 13.6977C36.5298 16.3488 31.7798 17.0116 28.3869 13.4767C26.5774 11.5988 25.8988 10.3837 23.0714 9.38953C18.2083 7.62209 13.006 9.72093 10.5179 13.9186C8.93453 16.5698 9.04763 18.1163 9.38691 21.4302C7.91667 21.3198 7.35119 21.4302 7.23809 22.9767C7.125 23.9709 7.57737 24.8547 8.02975 25.5174C10.6309 29.8256 10.8571 25.186 10.8571 25.0756C11.875 25.5174 12.4405 26.5116 13.3452 27.2849C14.1369 27.9477 15.0417 28.5 16.0595 29.0523C17.9821 30.157 20.5833 31.2616 23.2976 30.9302C23.0714 29.8256 22.0536 30.0465 22.7321 28.8314C24.6548 27.7267 28.1607 30.7093 31.1012 29.0523C30.7619 27.8372 29.9702 28.0581 29.2917 26.9535C29.5179 25.0756 32.7976 23.8605 35.3988 24.6337C36.1905 24.8546 36.9822 25.2965 37.5476 25.9593C34.7202 33.0291 27.7083 38 19.4524 38C8.70833 38 0 29.4942 0 19C0 8.50581 8.70833 0 19.4524 0C28.0476 0.22093 35.5119 5.85465 38 13.6977ZM27.1429 22.7558C27.9345 22.7558 28.6131 22.9767 29.2917 22.6453C29.8571 22.3139 30.4226 21.7616 29.9702 21.2093C29.0655 20.3256 29.631 21.3198 28.3869 21.5407C27.5952 21.6512 27.3691 21.3198 26.3512 21.5407C26.0119 22.2035 26.0119 22.8663 25.6726 23.4186C24.0893 22.8663 23.0714 19.7733 24.0893 19.1105C24.9941 18.7791 25.3333 19.4419 26.2381 19C27.1429 18.4477 26.9167 17.7849 25.6726 17.7849C23.6369 17.8954 22.506 17.7849 22.506 20.2151C22.506 22.2035 24.6548 25.2965 26.3512 24.8546C27.1429 24.6337 27.1429 23.6395 27.1429 22.7558Z" fill="url(#paint0_linear_317_438)"/>
<path d="M51.94 22.06C52.0133 22.5 52.3167 22.8433 52.85 23.09C53.3833 23.3367 54.1067 23.46 55.02 23.46C56.7133 23.46 57.56 23.12 57.56 22.44C57.56 22.1733 57.42 21.9633 57.14 21.81C56.86 21.65 56.3533 21.5467 55.62 21.5L53.14 21.34C50.94 21.1933 49.3267 20.7233 48.3 19.93C47.2733 19.1367 46.76 18.0533 46.76 16.68C46.76 15.5867 47.0733 14.6633 47.7 13.91C48.3333 13.1567 49.2267 12.59 50.38 12.21C51.54 11.83 52.9 11.64 54.46 11.64C55.9533 11.64 57.2867 11.85 58.46 12.27C59.6333 12.69 60.56 13.2833 61.24 14.05C61.9267 14.8167 62.3067 15.7 62.38 16.7H57.14C57.08 16.3333 56.8133 16.05 56.34 15.85C55.8667 15.6433 55.2067 15.54 54.36 15.54C52.7867 15.54 52 15.8533 52 16.48C52 16.7333 52.1333 16.9367 52.4 17.09C52.6667 17.2367 53.1333 17.3333 53.8 17.38L56.6 17.56C58.06 17.6533 59.2433 17.87 60.15 18.21C61.0567 18.5433 61.72 19.01 62.14 19.61C62.5667 20.2033 62.78 20.9467 62.78 21.84C62.78 22.9333 62.4533 23.9 61.8 24.74C61.1467 25.5733 60.2267 26.22 59.04 26.68C57.8533 27.1333 56.48 27.36 54.92 27.36C53.3067 27.36 51.88 27.14 50.64 26.7C49.4067 26.26 48.4467 25.64 47.76 24.84C47.0733 24.04 46.72 23.1133 46.7 22.06H51.94ZM73.9852 15.14C75.0985 15.14 76.0818 15.3933 76.9352 15.9C77.7885 16.4067 78.4485 17.1233 78.9152 18.05C79.3885 18.9767 79.6252 20.0467 79.6252 21.26C79.6252 22.4667 79.3885 23.5333 78.9152 24.46C78.4485 25.38 77.7885 26.0933 76.9352 26.6C76.0818 27.1067 75.0985 27.36 73.9852 27.36C73.0585 27.36 72.2152 27.1767 71.4552 26.81C70.7018 26.4367 70.0585 25.9067 69.5252 25.22V30.3H64.4452V15.5H69.5252V17.25C70.0585 16.57 70.7052 16.05 71.4652 15.69C72.2252 15.3233 73.0652 15.14 73.9852 15.14ZM72.3452 23.54C72.7652 23.54 73.1385 23.4433 73.4652 23.25C73.7918 23.05 74.0452 22.7767 74.2252 22.43C74.4118 22.0833 74.5052 21.6933 74.5052 21.26C74.5052 20.8267 74.4118 20.4367 74.2252 20.09C74.0452 19.7367 73.7918 19.46 73.4652 19.26C73.1385 19.06 72.7652 18.96 72.3452 18.96C71.9118 18.96 71.4852 19.06 71.0652 19.26C70.6518 19.46 70.2885 19.7367 69.9752 20.09C69.6685 20.4367 69.4518 20.8267 69.3252 21.26C69.4518 21.6867 69.6685 22.0733 69.9752 22.42C70.2885 22.7667 70.6518 23.04 71.0652 23.24C71.4852 23.44 71.9118 23.54 72.3452 23.54ZM86.0548 22.32C86.5748 23.3867 87.8048 23.92 89.7448 23.92C90.5982 23.92 91.4348 23.81 92.2548 23.59C93.0748 23.37 93.8382 23.0533 94.5448 22.64V25.52C93.7048 26.1133 92.7415 26.57 91.6548 26.89C90.5748 27.2033 89.4715 27.36 88.3448 27.36C86.9248 27.36 85.6448 27.1033 84.5048 26.59C83.3715 26.0767 82.4815 25.3533 81.8348 24.42C81.1882 23.4867 80.8648 22.4133 80.8648 21.2C80.8648 20.0133 81.1782 18.96 81.8048 18.04C82.4382 17.12 83.3015 16.4067 84.3948 15.9C85.4948 15.3933 86.7248 15.14 88.0848 15.14C89.4915 15.14 90.6982 15.4333 91.7048 16.02C92.7182 16.6 93.4915 17.43 94.0248 18.51C94.5582 19.5833 94.8248 20.8533 94.8248 22.32H86.0548ZM88.1448 18.38C87.5782 18.38 87.1048 18.5233 86.7248 18.81C86.3448 19.0967 86.0782 19.4867 85.9248 19.98H90.3348C90.1615 19.4533 89.8882 19.0567 89.5148 18.79C89.1482 18.5167 88.6915 18.38 88.1448 18.38ZM110.885 21.94C110.785 23.0067 110.405 23.95 109.745 24.77C109.092 25.59 108.222 26.2267 107.135 26.68C106.048 27.1333 104.838 27.36 103.505 27.36C102.045 27.36 100.752 27.1033 99.6248 26.59C98.4982 26.0767 97.6215 25.36 96.9948 24.44C96.3748 23.5133 96.0648 22.4533 96.0648 21.26C96.0648 20.0667 96.3748 19.0067 96.9948 18.08C97.6215 17.1533 98.4982 16.4333 99.6248 15.92C100.758 15.4 102.052 15.14 103.505 15.14C104.838 15.14 106.045 15.3667 107.125 15.82C108.212 16.2667 109.085 16.9 109.745 17.72C110.405 18.54 110.785 19.4867 110.885 20.56H105.865C105.745 20 105.475 19.5733 105.055 19.28C104.642 18.9867 104.125 18.84 103.505 18.84C102.778 18.84 102.208 19.0467 101.795 19.46C101.388 19.8733 101.185 20.4733 101.185 21.26C101.185 22.0467 101.388 22.6433 101.795 23.05C102.208 23.4567 102.778 23.66 103.505 23.66C104.112 23.66 104.625 23.5067 105.045 23.2C105.472 22.8867 105.745 22.4667 105.865 21.94H110.885ZM111.451 19.2V17.02L113.711 15.88L115.931 12.36H118.791V15.5H123.291V19.2H118.791V21.56C118.791 22.0733 118.848 22.4733 118.961 22.76C119.081 23.04 119.295 23.2433 119.601 23.37C119.908 23.4967 120.351 23.56 120.931 23.56C121.858 23.56 122.711 23.4333 123.491 23.18V26.86C123.005 27.0067 122.431 27.1267 121.771 27.22C121.111 27.3133 120.438 27.36 119.751 27.36C117.738 27.36 116.228 26.9167 115.221 26.03C114.215 25.1367 113.711 23.8667 113.711 22.22V19.2H111.451ZM134.287 15.14C134.667 15.14 135.107 15.18 135.607 15.26V19.56C134.78 19.4133 134.053 19.34 133.427 19.34C132.553 19.34 131.85 19.58 131.317 20.06C130.79 20.54 130.527 21.38 130.527 22.58V27H125.447V19.5L124.647 15.5H129.847L130.337 18.44C130.703 17.4 131.2 16.59 131.827 16.01C132.453 15.43 133.273 15.14 134.287 15.14ZM141.62 22.32C142.14 23.3867 143.37 23.92 145.31 23.92C146.164 23.92 147 23.81 147.82 23.59C148.64 23.37 149.404 23.0533 150.11 22.64V25.52C149.27 26.1133 148.307 26.57 147.22 26.89C146.14 27.2033 145.037 27.36 143.91 27.36C142.49 27.36 141.21 27.1033 140.07 26.59C138.937 26.0767 138.047 25.3533 137.4 24.42C136.754 23.4867 136.43 22.4133 136.43 21.2C136.43 20.0133 136.744 18.96 137.37 18.04C138.004 17.12 138.867 16.4067 139.96 15.9C141.06 15.3933 142.29 15.14 143.65 15.14C145.057 15.14 146.264 15.4333 147.27 16.02C148.284 16.6 149.057 17.43 149.59 18.51C150.124 19.5833 150.39 20.8533 150.39 22.32H141.62ZM143.71 18.38C143.144 18.38 142.67 18.5233 142.29 18.81C141.91 19.0967 141.644 19.4867 141.49 19.98H145.9C145.727 19.4533 145.454 19.0567 145.08 18.79C144.714 18.5167 144.257 18.38 143.71 18.38Z" fill="white"/>
<defs>
<linearGradient id="paint0_linear_317_438" x1="0" y1="19" x2="38" y2="19" gradientUnits="userSpaceOnUse">
<stop stop-color="#C9DBF5"/>
<stop offset="0.265" stop-color="#B0C5EF"/>
<stop offset="0.675" stop-color="#CAC4EF"/>
<stop offset="1" stop-color="#B8B7EA"/>
</linearGradient>
</defs>
</svg>
