<svg width="38" height="38" viewBox="0 0 38 38" fill="none" xmlns="http://www.w3.org/2000/svg">
<path fill-rule="evenodd" clip-rule="evenodd" d="M11.9881 18.5581C11.4226 18.7791 11.3095 19.7733 11.6488 20.7674C12.1012 21.7616 12.8929 22.3139 13.4583 22.093C14.0238 21.8721 14.1369 20.8779 13.7976 19.8837C13.3452 18.8895 12.5536 18.3372 11.9881 18.5581ZM17.0774 17.0116C16.3988 17.2326 16.2857 18.3372 16.7381 19.4419C17.1905 20.5465 18.0952 21.2093 18.6607 20.9884C19.3393 20.7674 19.4524 19.6628 19 18.5581C18.5476 17.4535 17.6429 16.7907 17.0774 17.0116ZM38 13.6977C36.5298 16.3488 31.7798 17.0116 28.3869 13.4767C26.5774 11.5988 25.8988 10.3837 23.0714 9.38953C18.2083 7.62209 13.006 9.72093 10.5179 13.9186C8.93453 16.5698 9.04763 18.1163 9.38691 21.4302C7.91667 21.3198 7.35119 21.4302 7.23809 22.9767C7.125 23.9709 7.57737 24.8547 8.02975 25.5174C10.6309 29.8256 10.8571 25.186 10.8571 25.0756C11.875 25.5174 12.4405 26.5116 13.3452 27.2849C14.1369 27.9477 15.0417 28.5 16.0595 29.0523C17.9821 30.157 20.5833 31.2616 23.2976 30.9302C23.0714 29.8256 22.0536 30.0465 22.7321 28.8314C24.6548 27.7267 28.1607 30.7093 31.1012 29.0523C30.7619 27.8372 29.9702 28.0581 29.2917 26.9535C29.5179 25.0756 32.7976 23.8605 35.3988 24.6337C36.1905 24.8546 36.9822 25.2965 37.5476 25.9593C34.7202 33.0291 27.7083 38 19.4524 38C8.70833 38 0 29.4942 0 19C0 8.50581 8.70833 0 19.4524 0C28.0476 0.22093 35.5119 5.85465 38 13.6977ZM27.1429 22.7558C27.9345 22.7558 28.6131 22.9767 29.2917 22.6453C29.8571 22.3139 30.4226 21.7616 29.9702 21.2093C29.0655 20.3256 29.631 21.3198 28.3869 21.5407C27.5952 21.6512 27.3691 21.3198 26.3512 21.5407C26.0119 22.2035 26.0119 22.8663 25.6726 23.4186C24.0893 22.8663 23.0714 19.7733 24.0893 19.1105C24.9941 18.7791 25.3333 19.4419 26.2381 19C27.1429 18.4477 26.9167 17.7849 25.6726 17.7849C23.6369 17.8954 22.506 17.7849 22.506 20.2151C22.506 22.2035 24.6548 25.2965 26.3512 24.8546C27.1429 24.6337 27.1429 23.6395 27.1429 22.7558Z" fill="url(#paint0_linear_2599_181)"/>
<defs>
<linearGradient id="paint0_linear_2599_181" x1="0" y1="19" x2="38" y2="19" gradientUnits="userSpaceOnUse">
<stop stop-color="#C9DBF5"/>
<stop offset="0.265" stop-color="#B0C5EF"/>
<stop offset="0.675" stop-color="#CAC4EF"/>
<stop offset="1" stop-color="#B8B7EA"/>
</linearGradient>
</defs>
</svg>
